<?xml version="1.0" encoding="UTF-8" standalone="no"?>
<!-- Created with Inkscape (http://www.inkscape.org/) -->

<svg
   xmlns:dc="http://purl.org/dc/elements/1.1/"
   xmlns:cc="http://creativecommons.org/ns#"
   xmlns:rdf="http://www.w3.org/1999/02/22-rdf-syntax-ns#"
   xmlns:svg="http://www.w3.org/2000/svg"
   xmlns="http://www.w3.org/2000/svg"
   xmlns:sodipodi="http://sodipodi.sourceforge.net/DTD/sodipodi-0.dtd"
   xmlns:inkscape="http://www.inkscape.org/namespaces/inkscape"
   width="352.84375"
   height="2001.4376"
   id="svg2"
   version="1.1"
   inkscape:version="0.48.2 r9819"
   sodipodi:docname="bone.svg">
  <defs
     id="defs4" />
  <sodipodi:namedview
     id="base"
     pagecolor="#ffffff"
     bordercolor="#666666"
     borderopacity="1.0"
     inkscape:pageopacity="0.0"
     inkscape:pageshadow="2"
     inkscape:zoom="0.24748737"
     inkscape:cx="59.285714"
     inkscape:cy="1038.6101"
     inkscape:document-units="px"
     inkscape:current-layer="layer1"
     showgrid="false"
     inkscape:window-width="1256"
     inkscape:window-height="755"
     inkscape:window-x="348"
     inkscape:window-y="348"
     inkscape:window-maximized="0"
     fit-margin-top="0"
     fit-margin-left="0"
     fit-margin-right="0"
     fit-margin-bottom="0" />
  <metadata
     id="metadata7">
    <rdf:RDF>
      <cc:Work
         rdf:about="">
        <dc:format>image/svg+xml</dc:format>
        <dc:type
           rdf:resource="http://purl.org/dc/dcmitype/StillImage" />
        <dc:title></dc:title>
      </cc:Work>
    </rdf:RDF>
  </metadata>
  <g
     inkscape:label="Layer 1"
     inkscape:groupmode="layer"
     id="layer1"
     transform="translate(0,960)">
    <path
       style="fill:#ffffff;stroke:none"
       d="m 251.4375,-960 c -30.51559,0 -57.90581,11.78405 -76.5,30.40625 -18.47773,-16.96381 -44.57282,-27.53125 -73.5,-27.53125 C 45.42005,-957.125 0,-917.47915 0,-868.5625 0,-819.64584 65.42005,-780 121.4375,-780 c 0.23197,0 0.4559,10e-4 0.6875,0 l 0,1644.28125 c -0.2316,-10e-4 -0.45553,0 -0.6875,0 C 65.42005,864.28125 0,903.95836 0,952.875 c 0,48.9168 45.42005,88.5626 101.4375,88.5626 30.52287,-10e-5 57.8743,-11.7764 76.46875,-30.4063 18.4786,16.9718 44.5963,27.5625 73.53125,27.5625 56.01745,0 101.40625,-39.67712 101.40625,-88.5938 0,-48.91666 -65.3888,-88.5625 -121.40625,-88.5625 -0.23962,0 -0.47952,-10e-4 -0.71875,0 l 0,-1644.28125 c 0.23923,10e-4 0.47913,0 0.71875,0 56.01745,0 121.40625,-39.64585 121.40625,-88.5625 C 352.84375,-920.3229 307.45495,-960 251.4375,-960 z"
       id="path3004"
       inkscape:connector-curvature="0"
       sodipodi:nodetypes="scsssccssscsssccsss" />
  </g>
</svg>
