<?xml version="1.0" encoding="UTF-8" standalone="no"?>
<!-- Created with Inkscape (http://www.inkscape.org/) -->

<svg
   xmlns:dc="http://purl.org/dc/elements/1.1/"
   xmlns:cc="http://creativecommons.org/ns#"
   xmlns:rdf="http://www.w3.org/1999/02/22-rdf-syntax-ns#"
   xmlns:svg="http://www.w3.org/2000/svg"
   xmlns="http://www.w3.org/2000/svg"
   xmlns:sodipodi="http://sodipodi.sourceforge.net/DTD/sodipodi-0.dtd"
   xmlns:inkscape="http://www.inkscape.org/namespaces/inkscape"
   width="514.46875"
   height="374.28125"
   id="svg3148"
   version="1.1"
   inkscape:version="0.48.2 r9819"
   sodipodi:docname="pelvis.svg">
  <defs
     id="defs3150" />
  <sodipodi:namedview
     id="base"
     pagecolor="#ffffff"
     bordercolor="#666666"
     borderopacity="1.0"
     inkscape:pageopacity="0.0"
     inkscape:pageshadow="2"
     inkscape:zoom="0.35"
     inkscape:cx="128.38489"
     inkscape:cy="-150.44758"
     inkscape:document-units="px"
     inkscape:current-layer="layer1"
     showgrid="false"
     inkscape:window-width="800"
     inkscape:window-height="722"
     inkscape:window-x="396"
     inkscape:window-y="282"
     inkscape:window-maximized="0"
     fit-margin-top="0"
     fit-margin-left="0"
     fit-margin-right="0"
     fit-margin-bottom="0" />
  <metadata
     id="metadata3153">
    <rdf:RDF>
      <cc:Work
         rdf:about="">
        <dc:format>image/svg+xml</dc:format>
        <dc:type
           rdf:resource="http://purl.org/dc/dcmitype/StillImage" />
        <dc:title></dc:title>
      </cc:Work>
    </rdf:RDF>
  </metadata>
  <g
     inkscape:label="Layer 1"
     inkscape:groupmode="layer"
     id="layer1"
     transform="translate(-109.8125,0)">
    <path
       style="fill:#ffffff;stroke:none"
       d="M 242.65625,0 C 169.28128,0 109.8125,58.851503 109.8125,131.4375 c 0,49.14855 27.2667,91.98519 67.65625,114.53125 -2.67557,8.97955 -4.125,18.47557 -4.125,28.3125 0,55.22848 45.26497,100 101.09375,100 41.39508,0 76.9926,-24.60349 92.625,-59.84375 15.63509,35.23398 51.20327,59.84375 92.59375,59.84375 55.82877,0 101.09375,-44.77153 101.09375,-100 0,-9.83693 -1.44943,-19.33295 -4.125,-28.3125 40.38955,-22.54607 67.65625,-65.3827 67.65625,-114.53125 C 624.28125,58.851504 564.81247,0 491.4375,0 434.53333,0 385.99096,35.411402 367.0625,85.15625 348.13688,35.405877 299.56443,0 242.65625,0 z m -23.0625,32.03125 c 18.40717,-0.561108 38.50317,6.852652 55.9375,22.375 34.86865,31.044688 45.83937,82.77412 24.53125,115.53125 -21.30813,32.75714 -66.85009,34.13844 -101.71875,3.09375 C 163.47509,141.98656 152.50437,90.257135 173.8125,57.5 184.46656,41.121432 201.18658,32.592358 219.59375,32.03125 z m 301.4375,3.78125 c 19.76463,-0.463584 37.93006,8.097769 49.25,25.5 21.30813,32.75713 10.33742,84.4553 -24.53125,115.5 -34.86865,31.04468 -80.41063,29.66338 -101.71875,-3.09375 C 422.72312,140.96161 433.69384,89.23219 468.5625,58.1875 484.90718,43.635302 503.59187,36.221545 521.03125,35.8125 z"
       id="path3175"
       inkscape:connector-curvature="0" />
  </g>
</svg>
