<?xml version="1.0" encoding="UTF-8" standalone="no"?>
<!-- Created with Inkscape (http://www.inkscape.org/) -->

<svg
   xmlns:dc="http://purl.org/dc/elements/1.1/"
   xmlns:cc="http://creativecommons.org/ns#"
   xmlns:rdf="http://www.w3.org/1999/02/22-rdf-syntax-ns#"
   xmlns:svg="http://www.w3.org/2000/svg"
   xmlns="http://www.w3.org/2000/svg"
   xmlns:sodipodi="http://sodipodi.sourceforge.net/DTD/sodipodi-0.dtd"
   xmlns:inkscape="http://www.inkscape.org/namespaces/inkscape"
   width="365.6875"
   height="299.57031"
   id="svg2"
   version="1.1"
   inkscape:version="0.48.2 r9819"
   sodipodi:docname="pumpkin.svg">
  <defs
     id="defs4" />
  <sodipodi:namedview
     id="base"
     pagecolor="#ffffff"
     bordercolor="#666666"
     borderopacity="1.0"
     inkscape:pageopacity="0.0"
     inkscape:pageshadow="2"
     inkscape:zoom="0.49497475"
     inkscape:cx="177.84375"
     inkscape:cy="99.986032"
     inkscape:document-units="px"
     inkscape:current-layer="layer1"
     showgrid="false"
     inkscape:window-width="717"
     inkscape:window-height="632"
     inkscape:window-x="653"
     inkscape:window-y="433"
     inkscape:window-maximized="0"
     fit-margin-top="0"
     fit-margin-left="0"
     fit-margin-right="0"
     fit-margin-bottom="0" />
  <metadata
     id="metadata7">
    <rdf:RDF>
      <cc:Work
         rdf:about="">
        <dc:format>image/svg+xml</dc:format>
        <dc:type
           rdf:resource="http://purl.org/dc/dcmitype/StillImage" />
        <dc:title></dc:title>
      </cc:Work>
    </rdf:RDF>
  </metadata>
  <g
     inkscape:label="Layer 1"
     inkscape:groupmode="layer"
     id="layer1"
     transform="translate(-197.15625,-338.4922)">
    <path
       style="fill:#ff6600;stroke:none"
       d="m 377.15625,398.0625 c -100.98922,0 -180,31.55479 -180,105.71875 0,74.16396 81.85453,134.28125 182.84375,134.28125 100.98921,0 182.84375,-60.11729 182.84375,-134.28125 0,-74.16396 -84.69829,-105.71875 -185.6875,-105.71875 z m 60.375,42.34375 c 17.29464,0 43.4375,17.84879 43.4375,37.375 0,19.52621 -27.99337,41.12729 -43.4375,33.34375 -5.73445,-2.89005 -21.34748,-18.34005 -31.3125,-35.375 -9.85933,-16.85427 14.01785,-35.34375 31.3125,-35.34375 z m -127.40625,1.8125 c 17.29465,0 41.17183,18.52073 31.3125,35.375 -9.96502,17.03495 -25.57805,32.4537 -31.3125,35.34375 -15.44413,7.78354 -43.4375,-13.81754 -43.4375,-33.34375 0,-19.52621 26.14286,-37.375 43.4375,-37.375 z m 47.0625,62.84375 c 5.70251,0 13.59464,6.09894 10.34375,11.65625 -3.28573,5.61688 -8.45295,10.70332 -10.34375,11.65625 -5.09235,2.56644 -14.3125,-4.56168 -14.3125,-11 0,-6.43832 8.60999,-12.3125 14.3125,-12.3125 z m 31.125,0 c 5.70251,0 14.3125,5.87418 14.3125,12.3125 0,6.43832 -9.22015,13.56644 -14.3125,11 -1.8908,-0.95293 -7.05802,-6.03937 -10.34375,-11.65625 -3.25089,-5.55731 4.64124,-11.65625 10.34375,-11.65625 z m 128.0625,5.0625 5.65625,5.65625 c -0.8934,0.89344 -0.8142,0.7299 -0.875,0.6875 0.19701,0.80787 0.62749,2.33878 -0.375,4.34375 -0.11855,0.2371 -0.22153,0.43738 -0.34375,0.625 l 0.34375,-0.1875 c 0.351,0.70166 0.1553,0.3571 0.1875,0.4375 0.0322,0.0804 0.0766,0.19183 0.125,0.3125 0.0968,0.24134 0.20788,0.5713 0.375,0.96875 0.33424,0.79489 0.81789,1.84832 1.34375,2.90625 0.52586,1.05793 1.10913,2.13 1.625,2.875 0.18255,0.26365 0.0695,0.12695 0.21875,0.28125 0.62556,-0.0257 1.45566,0.056 2.40625,0.53125 2.36031,1.18017 2.9853,2.70405 3.0625,2.78125 0.0772,0.0772 1.60108,0.70219 2.78125,3.0625 0.68392,1.36783 0.5679,2.5951 0.5,3.21875 -0.0679,0.62365 -0.0937,0.85331 -0.0937,0.59375 l -8,0 c 0,-0.33672 0.009,-0.31239 0.0312,-0.53125 -0.0712,0.0267 0.004,0.19196 -0.875,-0.6875 -0.72135,-0.72175 -0.44587,-0.55252 -0.5625,-0.71875 -0.63121,0.0327 -1.4633,-0.0754 -2.4375,-0.5625 -1.88704,-0.94352 -2.72824,-2.18758 -3.59375,-3.4375 -0.86551,-1.24992 -1.61798,-2.57225 -2.25,-3.84375 -0.15359,-0.30899 -0.29751,-0.57745 -0.4375,-0.875 0.10965,0.41106 0.244,0.86483 0.25,1.6875 0.007,1.00599 -0.37972,2.62972 -1.46875,3.71875 -0.18323,0.18323 -0.4182,0.2363 -0.625,0.375 0.004,1.03681 -0.29743,2.54743 -1.40625,3.65625 l -0.0312,0.0312 c -0.34866,0.34014 -0.77706,0.4655 -1.1875,0.65625 -0.0491,0.11402 -0.003,0.162 -0.0625,0.28125 l 0,0.0312 c -0.49993,0.98856 -1.05627,1.52813 -1.53125,1.90625 -0.007,0.5916 -0.049,1.28556 -0.46875,2.125 -0.38956,0.77911 -0.84672,1.38932 -1.3125,1.875 1.11994,2.10059 2.42106,4.3495 3.46875,6.96875 0.354,0.88492 0.4059,1.60357 0.375,2.15625 0.14056,0.0469 0.11827,-0.014 0.53125,0.21875 0.77588,0.43731 2.0415,1.54768 2.65625,2.90625 0.61475,1.35857 0.75,2.68907 0.75,4.28125 l -8,0 c 0,-0.614 -0.014,-0.52174 -0.0312,-0.625 -0.8114,-0.44835 -2.52022,-1.50919 -3.59375,-3.65625 -0.6758,-1.3516 -0.55637,-2.3034 -0.4375,-2.9375 -0.15078,-0.34926 -0.3329,-0.70847 -0.5,-1.0625 -0.5629,1.11877 -0.5071,0.80061 -0.625,0.9375 -0.11968,0.13896 -0.24425,0.26494 -0.375,0.40625 -0.26149,0.28262 -0.58853,0.63855 -0.96875,1.03125 -0.75176,0.77643 -1.71348,1.74459 -2.6875,2.71875 0.0722,0.0471 0.14615,0.0747 0.21875,0.125 1.47111,1.01815 2.41135,3.2079 2.34375,4.71875 -0.0676,1.51085 -0.5803,2.49919 -1.03125,3.375 -0.5363,1.04158 -0.98272,1.66429 -1.5,2.4375 0.66975,0.73095 1.25318,1.73574 1.40625,2.8125 0.16424,1.15528 -0.12,2.16253 -0.40625,2.84375 -0.44452,1.05789 -0.83096,1.52796 -1.03125,1.75 0.0789,-0.15859 0.15015,-0.42262 0.21875,-0.875 0.12583,-0.82921 -0.48333,-2.18129 -1.125,-2.96875 l 0,7.125 c -1.76162,0 -2.7167,0.45244 -4.90625,-1.0625 -1.03776,-0.71802 -1.91945,-2.73688 -1.84375,-4.0625 -0.0408,-0.0372 -0.0855,-0.0543 -0.125,-0.0937 -1.43375,-1.43376 -1.62899,-3.70776 -1.34375,-4.96875 0.28524,-1.26099 0.75768,-2.09148 1.21875,-2.875 0.29464,-0.5007 0.45916,-0.73791 0.75,-1.1875 -0.37797,0.0208 -0.6168,10e-4 -0.96875,0.0312 -0.50595,0.14685 -0.98527,0.22175 -1.34375,0.21875 -0.0883,-5e-4 -0.0766,-0.0272 -0.15625,-0.0312 -0.1158,0.1341 -10e-4,-0.004 -0.1875,0.25 -0.58424,0.7972 -1.48554,2.2584 -3.46875,3.25 -0.84996,0.42495 -1.52968,0.46475 -2.125,0.46875 -0.38164,0.4794 -0.90116,1.0287 -1.90625,1.53125 -0.83976,0.4199 -1.53329,0.493 -2.125,0.5 -0.38164,0.4794 -0.90114,1.02871 -1.90625,1.53125 -0.83976,0.4199 -1.53329,0.493 -2.125,0.5 -0.38164,0.4794 -0.93241,1.0287 -1.9375,1.53125 -2.03368,1.01684 -3.72628,0.54835 -4.5,0.40625 -0.2035,-0.0372 -0.2127,-0.0253 -0.3125,-0.0312 -0.47969,0.27415 -1.54503,1.09834 -3.78125,1.84375 0.0965,0.15889 0.18735,0.31228 0.28125,0.5 0.51185,1.02379 0.57855,1.82749 0.53125,2.46875 0.1564,0.0688 0.43735,0.18738 0.4375,0.1875 3.1e-4,2.5e-4 0.56221,0.56216 0.5625,0.5625 2.9e-4,3.4e-4 0.2808,0.34499 0.375,0.5 0.18844,0.31001 0.27405,0.5516 0.34375,0.75 0.13945,0.39681 0.19555,0.614 0.21875,0.78125 0.0928,0.66899 0.0342,0.67951 0.0312,0.78125 -0.0108,0.40696 -0.0312,0.69501 -0.0312,1.8125 l -7.40625,0 c 0.006,0.0104 -0.006,0.0207 0,0.0312 0.0937,0.15412 0.37529,0.50034 0.375,0.5 -2.9e-4,-3.4e-4 0.56281,0.56275 0.5625,0.5625 -6.3e-4,-4.9e-4 1.84446,0.81262 1.84375,0.8125 -7.1e-4,-1.2e-4 1.78206,-0.12524 1.78125,-0.125 -8.1e-4,2.4e-4 0.76698,-0.31936 1,-0.46875 -0.54778,0.39684 -1.25048,0.78055 -2.1875,0.84375 -1.36183,0.0918 -2.48263,-0.49123 -3.125,-1 -1.28473,-1.01755 -1.70021,-1.93167 -2.4375,-3.40625 -0.4199,-0.83977 -0.493,-1.5333 -0.5,-2.125 -0.29327,-0.23347 -0.6186,-0.54338 -0.9375,-0.96875 -0.41946,0.38791 -0.96242,0.77914 -1.8125,1.0625 -1.03616,0.34535 -1.23028,0.25235 -1.65625,0.28125 -0.42597,0.0292 -0.8517,0.0232 -1.34375,0.0312 -0.98411,0.0158 -2.15571,0.0197 -3.3125,0 -2.31359,-0.0393 -4.86319,-0.125 -5.0625,-0.125 -0.65006,0 -0.94648,0.0322 -1.125,0.0312 -0.4617,0.28398 -1.33657,0.90748 -2.96875,1.53125 0.0262,0.68806 0.0312,1.35471 0.0312,2.53125 0,0.33787 -0.0405,0.31204 -0.0625,0.53125 0.0645,-0.0369 0.0177,-0.20107 0.90625,0.6875 l -5.65625,5.65625 c -0.0766,-0.0766 -1.57375,-0.71345 -2.75,-3.03125 l -0.0312,-0.0312 c -0.68392,-1.36783 -0.5679,-2.5951 -0.5,-3.21875 0.0509,-0.46774 0.0833,-0.7032 0.0937,-0.6875 -10e-4,-1.04575 -0.0204,-1.65831 -0.0312,-1.96875 l -6.09375,0 -20.21875,0 0,12.15625 -8,0 0,-12.15625 -20.3125,0 0,14.1875 -8,0 0,-14.1875 -4.0625,0 c -0.8239,0 -2.4974,0.37552 -4.84375,-0.0937 -2.93685,-0.58738 -4.87102,-1.72556 -6.21875,-2.0625 -0.12196,-0.0305 -1.54078,-0.0122 -3.125,0.0937 l 0,6.125 -8,0 0,-6.53125 c -0.99902,-0.38423 -1.69383,-0.87077 -2.1875,-1.1875 -0.49696,-0.3188 -0.60015,-0.3409 -0.65625,-0.375 -0.18891,-0.0198 -0.37543,-0.0403 -0.59375,-0.0312 -0.6431,0.027 -1.49685,0.0747 -2.40625,0.125 -0.9094,0.0502 -1.84846,0.10075 -2.75,0.0937 -0.90154,-0.007 -1.38227,0.35574 -3.34375,-0.625 -1.21434,-0.60717 -1.74811,-1.26818 -2.09375,-1.78125 -0.16074,0.0782 -0.46398,0.1875 -2.1875,0.1875 l -1.65625,0 -1.15625,-1.1875 c -0.89341,-0.8934 -0.7299,-0.8142 -0.6875,-0.875 -0.21886,0.0222 -0.19453,0.0312 -0.53125,0.0312 -0.27643,0 -1.00535,0.23015 -2.0625,0.28125 l 0,1.78125 c 0,-0.60608 7.2e-4,-0.31704 0.125,0.4375 0.12428,0.75454 0.29018,2.83482 -1.28125,4.40625 -1.57144,1.57145 -2.53044,1.52285 -3.8125,1.59375 -0.64103,0.0355 -1.35268,0.0839 -2.4375,-0.40625 -1.08482,-0.49015 -2.59375,-2.30303 -2.59375,-4 0,-0.75084 0.24545,-1.87704 0.96875,-2.75 0.31505,-0.38024 0.66991,-0.65302 1.03125,-0.875 l 0,-0.40625 c 0,-0.004 -0.0571,-1.37264 -0.0937,-2.59375 -1.51616,-0.59775 -2.35439,-1.18318 -2.8125,-1.46875 -0.62797,0.11115 -1.61605,0.2076 -2.96875,-0.46875 -1.07242,-0.53621 -1.57172,-1.0966 -1.9375,-1.59375 -0.74184,0.1286 -1.94201,0.36308 -3.59375,-0.1875 -1.40432,-0.46811 -2.07498,-1.20619 -2.53125,-1.8125 -0.44198,-0.0101 -0.8723,-0.01 -1.5,-0.21875 -2.07707,-0.69236 -3.08483,-1.44357 -3.625,-1.78125 -0.62471,0.11236 -1.60406,0.24484 -2.96875,-0.4375 -0.57682,-0.2884 -0.98995,-0.59793 -1.3125,-0.90625 -0.0457,0.0504 -0.0767,0.10795 -0.125,0.15625 -0.19377,0.19377 -0.43652,0.23087 -0.65625,0.375 0.007,0.73716 -0.11324,1.6015 -0.625,2.625 -0.55219,1.10439 -1.16135,1.6274 -1.65625,2 0.0201,0.35199 0.0308,0.66883 0.0625,1.09375 0.0507,0.67974 0.109,1.3899 0.125,2.09375 0.008,0.35193 0.0181,0.68213 -0.0312,1.15625 -0.0493,0.47412 0.41678,1.08326 -1.25,2.75 -1.29528,1.29528 -2.63535,1.53125 -3.84375,1.53125 -1.2084,0 -2.54847,-0.23597 -3.84375,-1.53125 -1.57143,-1.57143 -1.40553,-3.65171 -1.28125,-4.40625 0.12428,-0.75454 0.125,-1.0436 0.125,-0.4375 l 2.0625,0 c -0.0144,-0.2089 -0.0143,-0.33459 -0.0312,-0.5625 -0.051,-0.68373 -0.1077,-1.42056 -0.125,-2.15625 -0.009,-0.36785 -0.0351,-0.72044 0,-1.15625 0.0351,-0.43581 -7.4e-4,-0.87353 0.53125,-1.9375 0.48862,-0.97723 1.02682,-1.52299 1.5,-1.90625 -0.0999,-0.39529 -0.21375,-0.74188 -0.21875,-1.46875 -0.005,-0.73143 0.22012,-1.77715 0.75,-2.71875 -0.0535,-0.0619 -0.10855,-0.1276 -0.15625,-0.1875 -0.5916,-0.007 -1.28555,-0.049 -2.125,-0.46875 -0.97723,-0.48862 -1.49174,-1.05807 -1.875,-1.53125 -0.59585,-0.003 -1.30478,-0.0743 -2.15625,-0.5 -1.00511,-0.50254 -1.52461,-1.05185 -1.90625,-1.53125 -0.59541,-0.004 -1.27476,-0.0749 -2.125,-0.5 -0.56019,-0.2801 -0.95395,-0.58605 -1.28125,-0.875 -0.32999,0.44048 -0.66521,0.75836 -0.96875,1 -0.004,0.59531 -0.0438,1.27504 -0.46875,2.125 -0.52433,1.04866 -1.10623,1.59049 -1.59375,1.96875 0.20483,0.85328 0.4966,2.22557 -0.4375,4.09375 -0.73729,1.47458 -1.18402,2.41995 -2.46875,3.4375 -0.64237,0.50877 -1.73192,1.0918 -3.09375,1 -0.91195,-0.0615 -1.61064,-0.42663 -2.15625,-0.8125 0.2775,0.15767 0.96951,0.40648 0.96875,0.40625 -8.1e-4,-2.4e-4 1.78196,0.12488 1.78125,0.125 -7.1e-4,1.2e-4 1.81313,-0.81299 1.8125,-0.8125 -3.1e-4,2.5e-4 0.59404,-0.53159 0.59375,-0.53125 -2.9e-4,3.4e-4 0.25005,-0.37714 0.34375,-0.53125 0.006,-0.0101 -0.006,-0.0212 0,-0.0312 l -7.375,0 c 0,-1.11749 -0.0204,-1.40555 -0.0312,-1.8125 -0.003,-0.10174 -0.0617,-0.081 0.0312,-0.75 0.0232,-0.16724 0.0481,-0.38445 0.1875,-0.78125 0.0697,-0.1984 0.18657,-0.47125 0.375,-0.78125 0.0942,-0.155 0.34346,-0.49966 0.34375,-0.5 2.9e-4,-3.4e-4 0.59344,-0.56225 0.59375,-0.5625 1.9e-4,-1.5e-4 0.32468,-0.1454 0.5625,-0.25 -0.1876,-0.78201 -0.65754,-2.37242 0.375,-4.4375 0.50255,-1.00509 1.05186,-1.52462 1.53125,-1.90625 0.007,-0.59171 0.0801,-1.28524 0.5,-2.125 0.26817,-0.53635 0.53717,-0.93681 0.8125,-1.25 -0.56718,-0.39821 -0.81675,-0.74345 -1.25,-1.15625 -0.62321,-0.59379 -1.29026,-1.25527 -1.9375,-1.9375 -1.29448,-1.36446 -2.6448,-2.86355 -2.9375,-3.15625 l -0.21875,-0.21875 c -0.0631,0.0722 -0.1182,0.14945 -0.1875,0.21875 -0.18553,0.18552 -0.41539,0.2351 -0.625,0.375 0.004,1.03681 -0.29743,2.54743 -1.40625,3.65625 -0.57242,0.57242 -1.17821,1.10763 -2.09375,1.5 -0.91554,0.39237 -2.26774,0.54617 -3.4375,0.15625 -1.8003,-0.60009 -2.40112,-1.63104 -2.75,-2.46875 l -0.5625,0 c 0,-1.1779 -0.0223,-1.60483 -0.0312,-1.71875 -1.7e-4,-0.002 1.5e-4,-0.0293 0,-0.0312 4e-4,0.003 7.90675,-1.122 7.90625,-1.125 -0.001,-0.007 10e-4,-0.0243 0,-0.0312 -0.004,-0.0279 0.004,-0.0384 0,-0.0625 -0.017,-0.0963 -0.0203,-0.18579 -0.0625,-0.3125 -0.0845,-0.25342 -0.26057,-1.24311 -1.96875,-1.8125 -0.85409,-0.2847 -1.81323,-0.12469 -2.25,0.0625 -0.3963,0.16985 -0.4384,0.21155 -0.375,0.15625 l -0.0312,0.0312 c -0.76191,0.76191 -0.9007,1.97937 -0.875,2.28125 0.0257,0.30188 -0.006,0.10478 -0.125,-0.28125 -0.11905,-0.38603 -0.32095,-0.96878 -0.40625,-1.96875 -0.0805,-0.94409 0.15184,-2.61713 1.21875,-3.84375 -0.44555,-0.48902 -0.94056,-1.22686 -1.125,-2.28125 -0.11505,-0.65714 -0.0391,-1.25807 0.0937,-1.78125 -0.13139,-0.0641 0.007,0.19404 -0.78125,-0.59375 L 233.53125,523.875 239.1875,518.21875 247,526 c -0.23932,-0.87219 -0.36653,-1.98405 0.0937,-3.28125 0.61371,-1.7296 2.34643,-2.94349 3.6875,-3.34375 1.34107,-0.4003 2.54582,-0.4007 4,-0.3125 l -0.40625,6.65625 c 0.0752,-0.12679 0.1994,-0.20104 0.25,-0.34375 0.26493,-0.74675 0.1793,-1.20966 0.125,-1.375 0.0358,0.0788 0.19,0.38167 0.46875,0.8125 0.59896,0.92575 1.60555,2.18081 2.46875,3.6875 0.43167,0.75337 0.87524,1.55861 1.09375,2.8125 0.21851,1.25389 -0.10863,3.35863 -1.40625,4.65625 -0.0548,0.0548 -0.1266,0.0881 -0.1875,0.125 0.1063,0.16923 0.1682,0.26195 0.1875,0.28125 l 2.03125,2.03125 c 0.77092,0.77092 1.89343,2.04728 3.09375,3.3125 0.15853,0.1671 0.28437,0.28255 0.4375,0.4375 0.047,-0.10906 0.0762,-0.23836 0.125,-0.34375 0.0702,-0.15152 0.13926,-0.31599 0.3125,-0.59375 0.10162,-0.16293 0.23202,-0.4579 0.59375,-0.8125 -0.22592,-0.46316 -0.38913,-0.70376 -0.625,-1.3125 -0.54892,-1.4167 -1.13363,-3.84425 0.25,-6.15625 1.38363,-2.312 3.73118,-3.21588 6.375,-3.71875 l 1.5,7.875 c -0.13755,0.0262 -0.10608,0.0358 -0.21875,0.0625 0.2715,0.54953 0.5323,1.01326 0.90625,1.90625 0.55724,1.33068 1.34265,3.53345 0.125,5.96875 l -0.0312,0.0312 c -0.26205,0.52332 -0.46551,0.96819 -0.6875,1.375 0.35964,0.29098 0.63064,0.57605 0.84375,0.84375 0.5916,0.007 1.28556,0.049 2.125,0.46875 1.00509,0.50255 1.52462,1.05186 1.90625,1.53125 0.59171,0.007 1.28524,0.0801 2.125,0.5 l 0.0312,0 c 0.98847,0.49992 1.4969,1.05629 1.875,1.53125 0.59541,0.004 1.27477,0.0749 2.125,0.5 0.10323,0.0516 0.18725,0.10375 0.28125,0.15625 0.0463,-0.0711 0.0764,-0.14815 0.125,-0.21875 -0.0619,-1.26108 -0.125,-2.9819 -0.125,-6.46875 l 8,0 c 0,3.78672 0.0683,5.78339 0.125,6.78125 0.0284,0.49893 0.0459,0.7109 0.0625,0.90625 0.008,0.0977 0.0856,-0.0474 0.0312,0.75 -0.0136,0.19934 0.004,0.47266 -0.21875,1.09375 -0.0558,0.15527 -0.13952,0.35661 -0.25,0.5625 -0.0541,0.10077 -0.11706,0.19973 -0.21875,0.34375 0.0962,0.0407 0.18097,0.0749 0.28125,0.125 1.03296,0.51648 1.55791,1.07768 1.9375,1.5625 0.45317,0.004 0.93705,0.0311 1.59375,0.25 2.11806,0.70602 3.1306,1.45794 3.65625,1.78125 0.63542,-0.10753 1.58421,-0.22352 2.90625,0.4375 1.07241,0.53621 1.60298,1.12786 1.96875,1.625 0.74255,-0.12874 1.91459,-0.3618 3.5625,0.1875 1.40391,0.46797 2.07492,1.20624 2.53125,1.8125 0.44275,0.01 0.90161,0.009 1.53125,0.21875 1.51823,0.50607 2.35973,0.96589 2.96875,1.34375 -0.0655,-1.53826 -0.15625,-2.58771 -0.15625,-5.65625 l 8,0 c 0,4.44836 0.0992,6.49865 0.1875,7.71875 0.004,0.0182 0.0263,0.0447 0.0312,0.0625 0.0273,0.10577 0.0406,0.18215 0.0625,0.28125 0.10989,-0.0126 0.1724,-0.0126 0.34375,-0.0312 0.62365,-0.0679 1.85092,-0.15267 3.21875,0.53125 0.90437,0.45219 1.35133,0.92471 1.8125,1.375 0.92913,-0.10004 2.12787,-0.12403 3.71875,0.40625 1.57422,0.52474 2.26166,1.41966 2.6875,2.03125 0.54283,-0.005 1.20162,-0.053 1.9375,-0.0937 0.85433,-0.0472 1.73376,-0.0916 2.53125,-0.125 0.79749,-0.0334 0.99558,-0.29017 2.65625,0.125 0.40435,0.10109 0.76125,0.20975 1.09375,0.34375 l 0,-6.5625 8,0 0,8 c 1.51005,-0.14721 3.15973,-0.22569 5.0625,0.25 2.78429,0.69608 4.63539,1.72083 5.875,1.96875 0.29507,0.059 1.38016,-0.0625 3.25,-0.0625 l 4.0625,0 0,-6.09375 8,0 0,6.09375 20.3125,0 0,-6.09375 8,0 0,6.09375 20.21875,0 7.96875,0 4,-1 c 0.0477,0.19087 0.0799,0.29097 0.125,0.46875 0.61262,-0.36899 1.42016,-0.81714 2.8125,-1.28125 2.23882,-0.74624 3.45104,-0.21875 3.28125,-0.21875 0.92834,0 2.96345,0.0872 5.1875,0.125 1.11203,0.0189 2.21082,0.0131 3.03125,0 0.0131,-2.1e-4 0.0181,2.2e-4 0.0312,0 0.42384,-0.62949 1.09538,-1.42763 2.625,-1.9375 0.39017,-0.13006 0.75632,-0.22715 1.09375,-0.28125 -0.037,-0.003 -0.0546,0.002 -0.0937,0 l 0.5,-8 c 3.28278,0.19423 5.67628,0.57709 7.75,2.46875 0.66336,0.60512 1.16289,1.43659 1.5,2.28125 0.38771,-0.16713 0.83872,-0.33166 1.34375,-0.5 1.66117,-0.55373 2.79674,-0.31913 3.53125,-0.15625 0.37259,-0.4949 0.92686,-1.10405 2.03125,-1.65625 0.86207,-0.431 1.55678,-0.49969 2.15625,-0.5 0.38326,-0.47318 0.89777,-1.04263 1.875,-1.53125 0.83945,-0.41975 1.5334,-0.46175 2.125,-0.46875 0.38164,-0.4794 0.90116,-1.0287 1.90625,-1.53125 0.97421,-0.4871 1.80629,-0.5952 2.4375,-0.5625 0.1148,-0.13339 0.006,-0.002 0.1875,-0.25 0.58423,-0.79719 1.4543,-2.22714 3.4375,-3.21875 0.13187,-0.0655 0.18701,-0.009 0.3125,-0.0625 0.19674,-0.42335 0.33127,-0.86252 0.6875,-1.21875 0.96997,-0.96997 2.43993,-1.34975 3.28125,-1.34375 0.0711,4e-4 0.0596,0.0293 0.125,0.0312 0.0131,-0.0126 0.0179,-0.0184 0.0312,-0.0312 0.73587,-0.71248 1.7253,-1.6628 2.6875,-2.625 0.9622,-0.9622 1.91252,-1.92039 2.625,-2.65625 0.0126,-0.0131 0.0188,-0.0182 0.0312,-0.0312 -0.0257,-0.62556 0.0872,-1.45566 0.5625,-2.40625 0.50255,-1.00509 1.05186,-1.52462 1.53125,-1.90625 0.004,-0.59541 0.0749,-1.27477 0.5,-2.125 0.9916,-1.98321 2.42155,-2.88451 3.21875,-3.46875 0.248,-0.1815 0.11661,-0.0726 0.25,-0.1875 -0.0325,-0.63109 0.0757,-1.43261 0.5625,-2.40625 0.46683,-0.93368 0.97556,-1.49009 1.4375,-1.875 0.008,-0.84868 0.36097,-2.26722 1.3125,-3.21875 0.18323,-0.18323 0.4182,-0.2363 0.625,-0.375 -0.004,-1.03681 0.29743,-2.54743 1.40625,-3.65625 0.19243,-0.19243 0.43817,-0.23155 0.65625,-0.375 -0.0121,-0.74308 0.10624,-1.58749 0.625,-2.625 0.99161,-1.9832 2.42156,-2.88452 3.21875,-3.46875 0.248,-0.1815 0.11661,-0.0726 0.25,-0.1875 -0.0325,-0.63109 0.0757,-1.43261 0.5625,-2.40625 0.52433,-1.04866 1.10623,-1.59049 1.59375,-1.96875 -0.20483,-0.85328 -0.4966,-2.22557 0.4375,-4.09375 1.18016,-2.36038 2.6729,-2.9854 2.75,-3.0625 z m 7.25,19.0625 c -0.1422,0.003 -0.24775,0.043 -0.28125,0.0625 0.0129,0.004 0.0494,0.009 0.0937,0 0.036,-0.008 0.1934,-0.016 0.25,-0.0312 -0.0143,0 -0.0491,-0.0316 -0.0625,-0.0312 z M 271.09375,547.375 c -0.0636,10e-4 -0.0824,0.0232 -0.125,0.0312 -0.008,0.0119 -0.0233,0.0194 -0.0312,0.0312 0.0548,-0.007 0.16915,-0.018 0.21875,-0.0312 -0.0143,0 -0.0491,-0.0316 -0.0625,-0.0312 z m 14.9375,2.25 c 0,-10e-5 -0.0595,0.0293 -0.0625,0.0312 0.0797,-0.0209 0.1678,-0.0145 0.25,-0.0312 -0.031,9e-5 -0.18758,2e-5 -0.1875,0 z m 2,0 c 0.56353,0.18045 1.06918,0.37973 1.40625,0.625 -0.0923,-0.0713 -0.0858,-0.0861 -0.25,-0.1875 -0.11096,-0.0685 -0.23655,-0.13985 -0.40625,-0.21875 -0.1697,-0.0789 -0.65676,-0.21889 -0.65625,-0.21875 10e-5,10e-6 -0.0858,-4e-5 -0.0937,0 z m -8.875,1.78125 c -0.1422,0.003 -0.24775,0.043 -0.28125,0.0625 0.0129,0.004 0.0494,0.009 0.0937,0 0.0351,-0.007 0.1953,-0.0166 0.25,-0.0312 -0.0139,0 -0.0494,-0.0316 -0.0625,-0.0312 z m 211.65625,4 c -0.0217,-0.002 -0.1003,0.0322 -0.125,0.0312 0.0369,0.0103 0.157,0.0232 0.1875,0.0312 0.24294,0.0638 0.22543,-0.031 -0.0625,-0.0625 z m -229.34375,5.3125 c 0.17411,0.2035 0.41975,0.48795 0.40625,0.46875 -0.0207,-0.0294 -0.10407,-0.1857 -0.28125,-0.375 -0.0243,-0.0259 -0.0955,-0.0651 -0.125,-0.0937 z m 216.96875,2.8125 c -0.0134,-5e-4 -0.0482,0.0312 -0.0625,0.0312 0.0566,0.015 0.214,0.0232 0.25,0.0312 0.0443,0.009 0.0808,0.004 0.0937,0 -0.0335,-0.0195 -0.13905,-0.0585 -0.28125,-0.0625 z m -223.125,2.25 c 0.005,0.006 0.0281,-0.005 0.0312,0 0.0422,0.06 0.18467,0.22447 0.34375,0.40625 -0.21698,-0.20353 -0.32002,-0.33632 -0.375,-0.40625 z m 24.15625,4.125 c -0.37915,0.0365 -0.85443,0.19818 -1.46875,0.8125 -0.396,0.39599 -0.39213,0.55342 -0.5625,0.8125 l 3.375,0 1.21875,0 c -0.13845,-0.27498 -0.14458,-0.55083 -0.40625,-0.8125 -0.81909,-0.8195 -1.37615,-0.8125 -1.8125,-0.8125 -0.10909,0 -0.21737,-0.0122 -0.34375,0 z m -2.5625,2.34375 c -0.0819,0.32994 0.0383,0.4968 0.0312,0.5625 -0.0132,0.12687 0.004,0.0168 0,-0.15625 -0.002,-0.0834 -0.0253,-0.2922 -0.0312,-0.40625 z m 38.25,4.1875 0,3.1875 0,3.0625 c 0.39453,-0.20346 0.76534,-0.28467 1.125,-0.71875 0.20926,-0.25255 0.31146,-0.53631 0.4375,-0.8125 0.26367,-0.57779 0.4375,-1.13715 0.4375,-1.53125 0,-1.29552 -1.21149,-2.74341 -2,-3.1875 z m 150.5625,9.78125 c -0.069,0.0899 -0.0941,0.14807 -0.21875,0.28125 -0.0258,0.0276 -0.0953,0.0643 -0.125,0.0937 0.24201,-0.221 0.25675,-0.2786 0.34375,-0.375 z"
       id="path2985"
       inkscape:connector-curvature="0" />
    <path
       style="fill:#7c916f;stroke:#000000;stroke-width:1px;stroke-linecap:butt;stroke-linejoin:miter;stroke-opacity:1"
       d="m 379.81736,399.80364 c -2.0203,-2.69374 -4.04061,-5.38748 -6.06091,-8.08122 0,-0.67344 0.21296,-1.38143 0,-2.02031 -0.47619,-1.42857 -1.54412,-2.61204 -2.02031,-4.04061 -0.42592,-1.27775 0.42592,-2.76285 0,-4.04061 -0.47619,-1.42857 -1.54411,-2.61204 -2.0203,-4.04061 -0.43633,-1.30899 0,-8.4475 0,-10.10152 0,-5.38748 0,-10.77496 0,-16.16244 0,-3.36718 0,-6.73435 0,-10.10153 0,-0.67343 -0.47619,-1.54411 0,-2.0203 0.47619,-0.47619 1.34687,0 2.0203,0 0.67344,0 1.34687,0 2.02031,0 6.73435,0 13.4687,0 20.20305,0 4.04061,0 8.08122,0 12.12183,0 0.67343,0 1.54411,-0.47619 2.0203,0 1.39336,1.39336 -1.49432,3.77761 -2.0203,4.04061 -0.60234,0.30117 -1.41797,-0.30117 -2.02031,0 -4.467,2.2335 -0.62694,1.25388 -2.0203,4.04061 -0.85184,1.70367 -3.18878,2.33694 -4.04061,4.04061 -0.30117,0.60233 0.30117,1.41796 0,2.0203 -0.85184,1.70367 -3.43827,2.2336 -4.04061,4.04061 -0.42592,1.27775 0.42592,2.76286 0,4.04061 -0.60234,1.80702 -3.18878,2.33694 -4.04061,4.04061 -0.30117,0.60234 0.47619,1.54412 0,2.02031 -0.47619,0.47619 -1.54412,-0.47619 -2.02031,0 -1.01015,1.01015 1.01015,5.05076 0,6.06091 -0.47619,0.47619 -1.54411,-0.47619 -2.0203,0 -0.47619,0.47619 0,1.34687 0,2.02031 0,0.67343 0,1.34687 0,2.0203 0,1.432 0.26117,11.59948 0,12.12183 -1.75611,3.51221 -4.04061,6.73435 -6.06092,10.10153 z"
       id="path3919"
       inkscape:connector-curvature="0" />
  </g>
</svg>
