<?xml version="1.0" encoding="UTF-8" standalone="no"?>
<!-- Created with Inkscape (http://www.inkscape.org/) -->

<svg
   xmlns:dc="http://purl.org/dc/elements/1.1/"
   xmlns:cc="http://creativecommons.org/ns#"
   xmlns:rdf="http://www.w3.org/1999/02/22-rdf-syntax-ns#"
   xmlns:svg="http://www.w3.org/2000/svg"
   xmlns="http://www.w3.org/2000/svg"
   xmlns:sodipodi="http://sodipodi.sourceforge.net/DTD/sodipodi-0.dtd"
   xmlns:inkscape="http://www.inkscape.org/namespaces/inkscape"
   width="298.5625"
   height="294.0643"
   id="svg2994"
   version="1.1"
   inkscape:version="0.48.2 r9819"
   sodipodi:docname="skull.svg">
  <defs
     id="defs2996" />
  <sodipodi:namedview
     id="base"
     pagecolor="#ffffff"
     bordercolor="#666666"
     borderopacity="1.0"
     inkscape:pageopacity="0.0"
     inkscape:pageshadow="2"
     inkscape:zoom="1.4"
     inkscape:cx="-47.649423"
     inkscape:cy="130.07313"
     inkscape:document-units="px"
     inkscape:current-layer="layer1"
     showgrid="false"
     inkscape:window-width="1291"
     inkscape:window-height="721"
     inkscape:window-x="161"
     inkscape:window-y="467"
     inkscape:window-maximized="0"
     fit-margin-top="0"
     fit-margin-left="0"
     fit-margin-right="0"
     fit-margin-bottom="0" />
  <metadata
     id="metadata2999">
    <rdf:RDF>
      <cc:Work
         rdf:about="">
        <dc:format>image/svg+xml</dc:format>
        <dc:type
           rdf:resource="http://purl.org/dc/dcmitype/StillImage" />
        <dc:title></dc:title>
      </cc:Work>
    </rdf:RDF>
  </metadata>
  <g
     inkscape:label="Layer 1"
     inkscape:groupmode="layer"
     id="layer1"
     transform="translate(-222.75,-103.9982)">
    <path
       style="fill:#ffffff;stroke:none"
       d="M 149.3125 0 C 42.06559 -0.27985 11.74304 32.15149 12.9375 99 C 13.15922 111.40842 16.41962 123.2729 22.21875 134.21875 C 8.13398 141.1409 0 149.26405 0 158 C 0 171.6297 19.80286 183.87307 51.125 192.1875 C 51.0963 193.17102 51.09375 194.16573 51.09375 195.15625 C 51.09375 249.79299 97.204178 306.21428 147.875 290.5 C 192.83154 306.92857 247.5 249.79299 247.5 195.15625 C 247.5 194.15481 247.4668 193.15053 247.4375 192.15625 C 278.74835 183.84192 298.5625 171.62687 298.5625 158 C 298.5625 149.30743 290.48717 141.21248 276.53125 134.3125 C 282.33508 123.33875 285.54942 111.44758 285.65625 99 C 286.22177 33.10633 247.82564 0.25706 149.3125 0 z M 89.09375 56.71875 C 91.88722 56.75775 94.84766 57.05509 97.96875 57.625 C 120.34998 61.7118 126.53125 73.49967 126.53125 88.6875 C 126.53125 103.87533 112.45127 116.1875 95.09375 116.1875 C 77.73623 116.1875 75.05351 116.60086 61.53125 95.84375 C 50.72206 79.25128 62.09024 56.34138 89.09375 56.71875 z M 208.75 57.875 C 235.75351 57.49763 247.09044 80.40753 236.28125 97 C 222.75898 117.75711 220.07627 117.34375 202.71875 117.34375 C 185.36123 117.34375 171.28125 105.03158 171.28125 89.84375 C 171.28125 74.65592 177.49377 62.86805 199.875 58.78125 C 202.99609 58.21134 205.95653 57.91404 208.75 57.875 z M 150 117.625 C 163.41262 117.625 173.5625 156.37467 173.5625 171.5625 C 173.5625 186.75033 161.97513 174.0625 148.5625 174.0625 C 135.14987 174.0625 125 186.75033 125 171.5625 C 125 156.37467 136.58736 117.625 150 117.625 z M 139.34375 203.21875 C 144.58091 203.21875 148.8125 210.21782 148.8125 218.84375 C 148.8125 227.46967 143.79966 228.15625 138.5625 228.15625 C 133.89774 228.15625 130.62394 227.58869 129.96875 221.375 C 129.73788 226.97649 126.70907 228.18366 123.1875 228.40625 C 126.92856 228.54907 130.22648 229.55918 130.46875 235.4375 C 131.12394 229.22379 134.39773 228.6875 139.0625 228.6875 C 144.29965 228.6875 149.34375 229.34283 149.34375 237.96875 C 149.34375 246.59467 145.0809 253.59375 139.84375 253.59375 C 134.76514 253.59375 130.62139 247.0141 130.375 238.75 C 129.63788 244.68299 126.41383 249.125 122.59375 249.125 C 118.61636 249.125 115.36668 244.29806 114.8125 238 C 113.94834 242.4705 111.40685 245.71875 108.40625 245.71875 C 105.17885 245.71875 102.46177 241.99644 101.8125 237 C 101.07455 240.90062 98.9237 243.71875 96.3125 243.71875 C 93.1681 243.71875 90.61121 239.63431 90.5 234.5 C 90.17242 238.19071 88.23793 241.03125 85.90625 241.03125 C 83.34468 241.03125 81.28125 237.59404 81.28125 233.375 C 81.28125 229.15597 82.93844 228.84375 85.5 228.84375 C 87.9619 228.84375 90.31929 229.16801 90.5 232.9375 C 90.8291 228.8433 92.87626 228.4375 95.8125 228.4375 C 98.5587 228.4375 101.19015 228.76706 101.90625 232.15625 C 102.28209 229.9932 103.18076 228.96821 104.5 228.5 C 102.9481 228.11725 101.87283 227.11145 101.4375 224.78125 C 100.69224 228.08157 98.03293 228.40625 95.3125 228.40625 C 92.36876 228.40625 90.32124 227.96764 90 223.84375 C 89.81929 227.61323 87.49315 227.96875 85.03125 227.96875 C 82.46969 227.96875 80.78125 227.62529 80.78125 223.40625 C 80.78125 219.18721 82.84469 215.8125 85.40625 215.8125 C 87.73057 215.8125 89.66337 218.60763 90 222.28125 C 90.11389 217.15109 92.66991 213.0625 95.8125 213.0625 C 98.44145 213.0625 100.58975 215.96452 101.3125 219.90625 C 101.93927 214.86136 104.658 211.0625 107.90625 211.0625 C 110.91183 211.0625 113.45249 214.36172 114.3125 218.84375 C 114.8614 212.53581 118.14335 207.65625 122.125 207.65625 C 126.056 207.65625 129.26447 212.40322 129.875 218.59375 C 129.95428 210.08051 134.15613 203.21875 139.34375 203.21875 z M 158.6875 203.21875 C 163.76611 203.21875 167.9411 209.79838 168.1875 218.0625 C 168.92462 212.12949 172.14868 207.65625 175.96875 207.65625 C 179.95041 207.65625 183.2011 212.53581 183.75 218.84375 C 184.61 214.36172 187.15067 211.0625 190.15625 211.0625 C 193.38318 211.0625 196.10024 214.81714 196.75 219.8125 C 197.49231 215.92387 199.64399 213.0625 202.25 213.0625 C 205.31097 213.0625 207.82899 216.96337 208.0625 221.90625 C 208.495 218.42517 210.38364 215.8125 212.625 215.8125 C 215.18656 215.8125 217.25 219.18721 217.25 223.40625 C 217.25 227.62529 215.56156 227.96875 213 227.96875 C 210.51603 227.96875 208.17384 227.6161 208.03125 223.75 C 207.73298 227.96035 205.71539 228.34375 202.75 228.34375 C 200.00837 228.34375 197.37759 228.0608 196.65625 224.6875 C 196.27384 226.86808 195.34378 227.88474 194 228.34375 C 195.59728 228.72527 196.69922 229.7284 197.125 232.15625 C 197.8411 228.76706 200.50379 228.4375 203.25 228.4375 C 206.27526 228.4375 208.26759 228.85693 208.5 233.3125 C 208.52172 229.14648 210.98106 228.84375 213.53125 228.84375 C 216.09281 228.84375 217.78125 229.15597 217.78125 233.375 C 217.78125 237.59404 215.71781 241.03125 213.15625 241.03125 C 210.7548 241.03125 208.80002 238.00838 208.5625 234.15625 C 208.5625 239.45165 205.96507 243.78125 202.75 243.78125 C 200.14398 243.78125 197.9923 240.91988 197.25 237.03125 C 196.58966 242.00347 193.87321 245.71875 190.65625 245.71875 C 187.65565 245.71875 185.11416 242.4705 184.25 238 C 183.69582 244.29806 180.41488 249.125 176.4375 249.125 C 172.61742 249.125 169.4246 244.68299 168.6875 238.75 C 168.4411 247.0141 164.29736 253.59375 159.21875 253.59375 C 153.9816 253.59375 149.6875 246.59467 149.6875 237.96875 C 149.6875 229.34283 154.76285 228.6875 160 228.6875 C 164.66476 228.6875 167.93857 229.22379 168.59375 235.4375 C 168.82572 229.8095 171.83212 228.62085 175.375 228.40625 C 171.57728 228.26309 168.22108 227.22894 168.0625 221.125 C 167.46442 227.55835 164.22246 228.15625 159.5 228.15625 C 154.26285 228.15625 149.21875 227.46967 149.21875 218.84375 C 149.21875 210.21782 153.45035 203.21875 158.6875 203.21875 z M 114.5 224.09375 C 114.06858 226.72362 112.68134 227.84343 110.9375 228.34375 C 112.91512 228.76619 114.52991 229.87432 115 232.75 C 115.70034 229.40932 117.57178 228.5826 120.25 228.40625 C 117.32112 228.29136 115.24134 227.62999 114.5 224.09375 z M 183.5625 224.1875 C 182.843 227.38975 180.92637 228.22562 178.3125 228.40625 C 181.24138 228.52114 183.32116 229.21376 184.0625 232.75 C 184.48857 230.14347 185.84325 229.0089 187.5625 228.5 C 185.62826 228.07584 184.04948 226.96722 183.5625 224.1875 z "
       transform="translate(222.75,103.9982)"
       id="path3005" />
  </g>
</svg>
