<?xml version="1.0" encoding="UTF-8" standalone="no"?>
<!-- Created with Inkscape (http://www.inkscape.org/) -->

<svg
   xmlns:dc="http://purl.org/dc/elements/1.1/"
   xmlns:cc="http://creativecommons.org/ns#"
   xmlns:rdf="http://www.w3.org/1999/02/22-rdf-syntax-ns#"
   xmlns:svg="http://www.w3.org/2000/svg"
   xmlns="http://www.w3.org/2000/svg"
   xmlns:sodipodi="http://sodipodi.sourceforge.net/DTD/sodipodi-0.dtd"
   xmlns:inkscape="http://www.inkscape.org/namespaces/inkscape"
   width="55.70089"
   height="641.53833"
   id="svg2"
   version="1.1"
   inkscape:version="0.48.2 r9819"
   sodipodi:docname="three_bone_finger.svg">
  <defs
     id="defs4" />
  <sodipodi:namedview
     id="base"
     pagecolor="#ffffff"
     bordercolor="#666666"
     borderopacity="1.0"
     inkscape:pageopacity="0.0"
     inkscape:pageshadow="2"
     inkscape:zoom="0.7"
     inkscape:cx="30.8032"
     inkscape:cy="190.60614"
     inkscape:document-units="px"
     inkscape:current-layer="layer1"
     showgrid="false"
     fit-margin-top="0"
     fit-margin-left="0"
     fit-margin-right="0"
     fit-margin-bottom="0"
     inkscape:window-width="771"
     inkscape:window-height="739"
     inkscape:window-x="716"
     inkscape:window-y="371"
     inkscape:window-maximized="0" />
  <metadata
     id="metadata7">
    <rdf:RDF>
      <cc:Work
         rdf:about="">
        <dc:format>image/svg+xml</dc:format>
        <dc:type
           rdf:resource="http://purl.org/dc/dcmitype/StillImage" />
        <dc:title></dc:title>
      </cc:Work>
    </rdf:RDF>
  </metadata>
  <g
     inkscape:label="Layer 1"
     inkscape:groupmode="layer"
     id="layer1"
     transform="translate(-344.1968,-297.12854)">
    <path
       style="fill:#ffffff;stroke:none"
       d="m 383.88942,297.12854 c -4.81727,0 -9.14117,1.2547 -12.0765,3.2374 -2.91695,-1.8061 -7.03639,-2.9313 -11.60291,-2.9313 -8.84307,0 -16.01321,4.2212 -16.01321,9.4294 0,5.2082 10.32739,9.4293 19.17046,9.4293 0.0366,0 0.072,10e-5 0.10853,0 l 0,175.0685 c -0.0366,0 -0.0719,0 -0.10853,0 -8.84307,0 -19.17046,4.2245 -19.17046,9.4327 0,5.2082 7.17014,9.4294 16.01321,9.4294 4.81842,0 9.13619,-1.2539 12.07156,-3.2374 2.91709,1.807 7.0401,2.9346 11.60785,2.9346 8.84307,0 16.00827,-4.2245 16.00827,-9.4327 0,-5.2082 -10.32245,-9.4293 -19.16552,-9.4293 -0.0378,0 -0.0757,-2e-4 -0.11347,0 l 0,-175.0686 c 0.0378,10e-5 0.0756,0 0.11347,0 8.84307,0 19.16552,-4.2211 19.16552,-9.4293 0,-5.2083 -7.1652,-9.4327 -16.00827,-9.4327 z"
       id="path3004"
       inkscape:connector-curvature="0"
       sodipodi:nodetypes="scsssccssscsssccsss" />
    <path
       style="fill:#ffffff;stroke:none"
       d="m 383.88942,511.52884 c -4.81727,0 -9.14117,1.2547 -12.0765,3.2374 -2.91695,-1.8061 -7.03639,-2.9313 -11.60291,-2.9313 -8.84307,0 -16.01321,4.2212 -16.01321,9.4294 0,5.2082 10.32739,9.4293 19.17046,9.4293 0.0366,0 0.072,1e-4 0.10853,0 l 0,175.0685 c -0.0366,0 -0.0719,0 -0.10853,0 -8.84307,0 -19.17046,4.2245 -19.17046,9.4327 0,5.2082 7.17014,9.4294 16.01321,9.4294 4.81842,0 9.13619,-1.2539 12.07156,-3.2374 2.91709,1.807 7.0401,2.9346 11.60785,2.9346 8.84307,0 16.00827,-4.2245 16.00827,-9.4327 0,-5.2082 -10.32245,-9.4293 -19.16552,-9.4293 -0.0378,0 -0.0757,-2e-4 -0.11347,0 l 0,-175.0686 c 0.0378,10e-5 0.0756,0 0.11347,0 8.84307,0 19.16552,-4.2211 19.16552,-9.4293 0,-5.2083 -7.1652,-9.4327 -16.00827,-9.4327 z"
       id="path3004-5"
       inkscape:connector-curvature="0"
       sodipodi:nodetypes="scsssccssscsssccsss" />
    <path
       style="fill:#ffffff;stroke:none"
       d="m 383.88942,725.57145 c -4.81727,0 -9.14117,1.2547 -12.0765,3.2374 -2.91695,-1.8061 -7.03639,-2.9313 -11.60291,-2.9313 -8.84307,0 -16.01321,4.2212 -16.01321,9.4294 0,5.2082 10.32739,9.4293 19.17046,9.4293 0.0366,0 0.072,10e-5 0.10853,0 l 0,175.0685 c -0.0366,0 -0.0719,0 -0.10853,0 -8.84307,0 -19.17046,4.2245 -19.17046,9.4327 0,5.2082 7.17014,9.4294 16.01321,9.4294 4.81842,0 9.13619,-1.2539 12.07156,-3.2374 2.91709,1.807 7.0401,2.9346 11.60785,2.9346 8.84307,0 16.00827,-4.2245 16.00827,-9.4327 0,-5.2082 -10.32245,-9.4293 -19.16552,-9.4293 -0.0378,0 -0.0757,-2e-4 -0.11347,0 l 0,-175.0686 c 0.0378,10e-5 0.0756,0 0.11347,0 8.84307,0 19.16552,-4.2211 19.16552,-9.4293 0,-5.2083 -7.1652,-9.4327 -16.00827,-9.4327 z"
       id="path3004-5-0"
       inkscape:connector-curvature="0"
       sodipodi:nodetypes="scsssccssscsssccsss" />
  </g>
</svg>
