<?xml version="1.0" encoding="UTF-8" standalone="no"?>
<!-- Created with Inkscape (http://www.inkscape.org/) -->

<svg
   xmlns:dc="http://purl.org/dc/elements/1.1/"
   xmlns:cc="http://creativecommons.org/ns#"
   xmlns:rdf="http://www.w3.org/1999/02/22-rdf-syntax-ns#"
   xmlns:svg="http://www.w3.org/2000/svg"
   xmlns="http://www.w3.org/2000/svg"
   xmlns:sodipodi="http://sodipodi.sourceforge.net/DTD/sodipodi-0.dtd"
   xmlns:inkscape="http://www.inkscape.org/namespaces/inkscape"
   width="1032.9957"
   height="817.13483"
   id="svg3276"
   version="1.1"
   inkscape:version="0.48.2 r9819"
   sodipodi:docname="torso.svg">
  <defs
     id="defs3278" />
  <sodipodi:namedview
     id="base"
     pagecolor="#ffffff"
     bordercolor="#666666"
     borderopacity="1.0"
     inkscape:pageopacity="0.0"
     inkscape:pageshadow="2"
     inkscape:zoom="0.24748737"
     inkscape:cx="305.66708"
     inkscape:cy="411.72381"
     inkscape:document-units="px"
     inkscape:current-layer="layer1"
     showgrid="false"
     inkscape:window-width="1248"
     inkscape:window-height="620"
     inkscape:window-x="135"
     inkscape:window-y="429"
     inkscape:window-maximized="0"
     fit-margin-top="0"
     fit-margin-left="0"
     fit-margin-right="0"
     fit-margin-bottom="0" />
  <metadata
     id="metadata3281">
    <rdf:RDF>
      <cc:Work
         rdf:about="">
        <dc:format>image/svg+xml</dc:format>
        <dc:type
           rdf:resource="http://purl.org/dc/dcmitype/StillImage" />
        <dc:title></dc:title>
      </cc:Work>
    </rdf:RDF>
  </metadata>
  <g
     inkscape:label="Layer 1"
     inkscape:groupmode="layer"
     id="layer1"
     transform="translate(423.27912,-126.95115)">
    <path
       style="font-size:medium;font-style:normal;font-variant:normal;font-weight:normal;font-stretch:normal;text-indent:0;text-align:start;text-decoration:none;line-height:normal;letter-spacing:normal;word-spacing:normal;text-transform:none;direction:ltr;block-progression:tb;writing-mode:lr-tb;text-anchor:start;baseline-shift:baseline;color:#000000;fill:#ffffff;fill-opacity:1;stroke:none;stroke-width:96.79378509999999380;marker:none;visibility:visible;display:inline;overflow:visible;enable-background:accumulate;font-family:Sans;-inkscape-font-specification:Sans"
       d="m 92.34375,193.53125 a 48.401732,48.401732 0 0 0 -47.6875,49.0625 l 0,392.875 a 48.40625,48.40625 0 0 0 96.8125,0 l 0,-392.875 a 48.401732,48.401732 0 0 0 -49.125,-49.0625 z"
       id="path4081"
       inkscape:connector-curvature="0" />
    <path
       style="font-size:medium;font-style:normal;font-variant:normal;font-weight:normal;font-stretch:normal;text-indent:0;text-align:start;text-decoration:none;line-height:normal;letter-spacing:normal;word-spacing:normal;text-transform:none;direction:ltr;block-progression:tb;writing-mode:lr-tb;text-anchor:start;baseline-shift:baseline;color:#000000;fill:#ffffff;fill-opacity:1;stroke:none;stroke-width:50;marker:none;visibility:visible;display:inline;overflow:visible;enable-background:accumulate;font-family:Sans;-inkscape-font-specification:Sans"
       d="m -353.1875,161.75 a 25.0025,25.0025 0 0 0 -15.375,45.4375 c 137.23671,99.20066 273.427185,95.11595 389.96875,60.5625 A 25.0025,25.0025 0 1 0 7.1875,219.8125 c -107.98716,32.01715 -222.10002,36.77414 -346.46875,-53.125 A 25.0025,25.0025 0 0 0 -353.1875,161.75 z"
       id="path3284"
       inkscape:connector-curvature="0" />
    <path
       style="font-size:medium;font-style:normal;font-variant:normal;font-weight:normal;font-stretch:normal;text-indent:0;text-align:start;text-decoration:none;line-height:normal;letter-spacing:normal;word-spacing:normal;text-transform:none;direction:ltr;block-progression:tb;writing-mode:lr-tb;text-anchor:start;baseline-shift:baseline;color:#000000;fill:#ffffff;fill-opacity:1;stroke:none;stroke-width:50;marker:none;visibility:visible;display:inline;overflow:visible;enable-background:accumulate;font-family:Sans;-inkscape-font-specification:Sans"
       d="m -351.15625,191.84375 a 25.0025,25.0025 0 0 0 -20.125,38 c 40.499,68.58001 80.12477,111.88455 121.03125,136.28125 40.90648,24.3967 83.28317,28.13901 120.84375,18.875 C -54.285089,366.47198 4.6805378,304.19174 53.5625,267.78125 a 25.003325,25.003325 0 1 0 -29.84375,-40.125 c -54.080678,40.28284 -110.938539,95.42431 -165.09375,108.78125 -27.07761,6.67847 -52.72457,4.95542 -83.25,-13.25 -30.52543,-18.20542 -65.75485,-54.65287 -103.625,-118.78125 a 25.0025,25.0025 0 0 0 -22.90625,-12.5625 z"
       id="path3284-1"
       inkscape:connector-curvature="0" />
    <path
       style="font-size:medium;font-style:normal;font-variant:normal;font-weight:normal;font-stretch:normal;text-indent:0;text-align:start;text-decoration:none;line-height:normal;letter-spacing:normal;word-spacing:normal;text-transform:none;direction:ltr;block-progression:tb;writing-mode:lr-tb;text-anchor:start;baseline-shift:baseline;color:#000000;fill:#ffffff;fill-opacity:1;stroke:none;stroke-width:50;marker:none;visibility:visible;display:inline;overflow:visible;enable-background:accumulate;font-family:Sans;-inkscape-font-specification:Sans"
       d="m -357.78125,228.15625 a 25.0025,25.0025 0 0 0 -23.3125,34.53125 c 31.69981,80.07053 69.10855,136.58634 110.78125,172.96875 41.6727,36.38241 88.57527,51.98461 133.40625,47.75 89.661969,-8.46922 164.003635,-88.99251 203.09375,-196.875 a 25.0025,25.0025 0 1 0 -47,-17.03125 c -34.800382,96.04351 -99.343159,158.32173 -160.78125,164.125 -30.71905,2.90164 -62.4547,-6.47464 -95.84375,-35.625 -33.38905,-29.15036 -67.47639,-78.7504 -97.15625,-153.71875 a 25.0025,25.0025 0 0 0 -23.1875,-16.125 z"
       id="path3284-0"
       inkscape:connector-curvature="0" />
    <path
       style="font-size:medium;font-style:normal;font-variant:normal;font-weight:normal;font-stretch:normal;text-indent:0;text-align:start;text-decoration:none;line-height:normal;letter-spacing:normal;word-spacing:normal;text-transform:none;direction:ltr;block-progression:tb;writing-mode:lr-tb;text-anchor:start;baseline-shift:baseline;color:#000000;fill:#ffffff;fill-opacity:1;stroke:none;stroke-width:50;marker:none;visibility:visible;display:inline;overflow:visible;enable-background:accumulate;font-family:Sans;-inkscape-font-specification:Sans"
       d="M -370.84375,280.6875 A 25.0025,25.0025 0 0 0 -393.75,313.78125 c 35.96658,110.35418 74.98101,180.6682 118.5625,222.6875 43.58149,42.0193 94.5852,53.26864 139.59375,41.28125 C -45.576657,553.77522 22.435328,457.01041 67.75,386.5 A 25.0025,25.0025 0 1 0 25.6875,359.46875 c -43.442832,67.5978 -113.250152,153.75559 -174.125,169.96875 -30.43742,8.10658 -58.16004,3.74971 -92.0625,-28.9375 -33.90246,-32.68721 -71.12924,-96.18564 -105.6875,-202.21875 a 25.0025,25.0025 0 0 0 -24.65625,-17.59375 z"
       id="path3284-19"
       inkscape:connector-curvature="0" />
    <path
       style="font-size:medium;font-style:normal;font-variant:normal;font-weight:normal;font-stretch:normal;text-indent:0;text-align:start;text-decoration:none;line-height:normal;letter-spacing:normal;word-spacing:normal;text-transform:none;direction:ltr;block-progression:tb;writing-mode:lr-tb;text-anchor:start;baseline-shift:baseline;color:#000000;fill:#ffffff;fill-opacity:1;stroke:none;stroke-width:50;marker:none;visibility:visible;display:inline;overflow:visible;enable-background:accumulate;font-family:Sans;-inkscape-font-specification:Sans"
       d="m -390.46875,304.03125 a 25.0025,25.0025 0 0 0 -24.21875,30.1875 c 26.81307,136.14394 60.99996,225.32154 102.46875,281.15625 41.46879,55.83471 94.93073,77.26238 145.125,67.90625 C -116.89948,673.92512 -72.38216,639.32711 -32.75,596 6.8821602,552.67289 41.611315,499.58502 68.78125,448.5 a 25.0025,25.0025 0 1 0 -44.125,-23.46875 c -25.58782459,48.11032 -58.648992,98.2303 -94.3125,137.21875 -35.66351,38.98845 -73.96553,65.79315 -106.59375,71.875 -32.62822,6.08185 -61.97433,-2.95979 -95.84375,-48.5625 -33.86942,-45.60271 -67.53274,-128.83331 -93.5625,-261 a 25.0025,25.0025 0 0 0 -24.8125,-20.53125 z"
       id="path3284-19-5"
       inkscape:connector-curvature="0" />
    <path
       style="font-size:medium;font-style:normal;font-variant:normal;font-weight:normal;font-stretch:normal;text-indent:0;text-align:start;text-decoration:none;line-height:normal;letter-spacing:normal;word-spacing:normal;text-transform:none;direction:ltr;block-progression:tb;writing-mode:lr-tb;text-anchor:start;baseline-shift:baseline;color:#000000;fill:#ffffff;fill-opacity:1;stroke:none;stroke-width:50;marker:none;visibility:visible;display:inline;overflow:visible;enable-background:accumulate;font-family:Sans;-inkscape-font-specification:Sans"
       d="m -346.90625,126.96875 a 25.0025,25.0025 0 0 0 -0.125,49.96875 c 196.4766,10.26361 265.160476,48.57786 379.09375,79.65625 A 25.0025,25.0025 0 1 0 45.21875,208.375 C -63.424418,178.73963 -141.95419,137.57575 -344.40625,127 a 25.0025,25.0025 0 0 0 -2.5,-0.0312 z"
       id="path3284-8"
       inkscape:connector-curvature="0" />
    <path
       style="font-size:medium;font-style:normal;font-variant:normal;font-weight:normal;font-stretch:normal;text-indent:0;text-align:start;text-decoration:none;line-height:normal;letter-spacing:normal;word-spacing:normal;text-transform:none;direction:ltr;block-progression:tb;writing-mode:lr-tb;text-anchor:start;baseline-shift:baseline;color:#000000;fill:#ffffff;fill-opacity:1;stroke:none;stroke-width:50;marker:none;visibility:visible;display:inline;overflow:visible;enable-background:accumulate;font-family:Sans;-inkscape-font-specification:Sans"
       d="m -383.34375,318.65625 a 25.0025,25.0025 0 0 0 -25.71875,26.6875 c 10.55997,195.09306 36.40567,313.91919 75.5,384.15625 19.54716,35.11853 43.46487,58.76758 71.46875,69.75 28.00388,10.98242 57.96779,7.96508 84.96875,-2.84375 C -123.12308,774.78859 -75.00695,724.67772 -32.21875,671 10.56945,617.32228 46.946466,559.38952 70.15625,520.84375 A 25.009359,25.009359 0 1 0 27.3125,495.03125 c -22.7136177,37.72176 -58.184419,94.07986 -98.625,144.8125 -40.44058,50.73264 -86.90952,95.14583 -124.40625,110.15625 -18.74836,7.50521 -33.75624,8.32257 -48.125,2.6875 -14.36876,-5.63507 -30.2119,-19.07888 -46.03125,-47.5 -31.6387,-56.84224 -58.90934,-170.91252 -69.28125,-362.53125 a 25.0025,25.0025 0 0 0 -24.1875,-24 z"
       id="path3284-19-5-9"
       inkscape:connector-curvature="0" />
    <path
       style="font-size:medium;font-style:normal;font-variant:normal;font-weight:normal;font-stretch:normal;text-indent:0;text-align:start;text-decoration:none;line-height:normal;letter-spacing:normal;word-spacing:normal;text-transform:none;direction:ltr;block-progression:tb;writing-mode:lr-tb;text-anchor:start;baseline-shift:baseline;color:#000000;fill:#ffffff;fill-opacity:1;stroke:none;stroke-width:50;marker:none;visibility:visible;display:inline;overflow:visible;enable-background:accumulate;font-family:Sans;-inkscape-font-specification:Sans"
       d="m -390.125,305.84375 a 25.0025,25.0025 0 0 0 -23.96875,23.4375 c -18.74192,248.23983 -7.87081,402.75153 24.125,495.9375 15.9979,46.59299 37.89981,78.98057 67.0625,96.90625 29.16269,17.92568 63.69629,18.3933 95.1875,7.875 C -164.73634,908.9634 -105.2773,849.73749 -51.8125,781.53125 1.6523023,713.32501 47.564591,635.52754 74.65625,573.84375 A 25.0025,25.0025 0 1 0 28.875,553.75 c -24.9060236,56.70742 -69.431769,132.38661 -120.03125,196.9375 -50.59948,64.55089 -108.8432,117.35586 -152.40625,131.90625 -21.78153,7.27519 -37.72317,6.42388 -53.15625,-3.0625 -15.43308,-9.48638 -32.24604,-30.59588 -45.96875,-70.5625 -27.44542,-79.93324 -40.03775,-230.7846 -21.53125,-475.90625 A 25.0025,25.0025 0 0 0 -390.125,305.84375 z"
       id="path3284-19-5-9-9"
       inkscape:connector-curvature="0" />
    <path
       style="font-size:medium;font-style:normal;font-variant:normal;font-weight:normal;font-stretch:normal;text-indent:0;text-align:start;text-decoration:none;line-height:normal;letter-spacing:normal;word-spacing:normal;text-transform:none;direction:ltr;block-progression:tb;writing-mode:lr-tb;text-anchor:start;baseline-shift:baseline;color:#000000;fill:#ffffff;fill-opacity:1;stroke:none;stroke-width:50;marker:none;visibility:visible;display:inline;overflow:visible;enable-background:accumulate;font-family:Sans;-inkscape-font-specification:Sans"
       d="m 541.375,168.875 a 25.0025,25.0025 0 0 0 -15.65625,4.9375 C 401.35002,263.71164 287.23716,258.95465 179.25,226.9375 A 25.0025,25.0025 0 1 0 165.03125,274.875 C 281.57281,309.42845 417.76329,313.51316 555,214.3125 A 25.0025,25.0025 0 0 0 541.375,168.875 z"
       id="path3284-3"
       inkscape:connector-curvature="0" />
    <path
       style="font-size:medium;font-style:normal;font-variant:normal;font-weight:normal;font-stretch:normal;text-indent:0;text-align:start;text-decoration:none;line-height:normal;letter-spacing:normal;word-spacing:normal;text-transform:none;direction:ltr;block-progression:tb;writing-mode:lr-tb;text-anchor:start;baseline-shift:baseline;color:#000000;fill:#ffffff;fill-opacity:1;stroke:none;stroke-width:50;marker:none;visibility:visible;display:inline;overflow:visible;enable-background:accumulate;font-family:Sans;-inkscape-font-specification:Sans"
       d="m 536.84375,198.9375 a 25.0025,25.0025 0 0 0 -22.15625,12.59375 c -37.87015,64.12837 -73.09957,100.57583 -103.625,118.78125 -30.52543,18.20542 -56.17239,19.92847 -83.25,13.25 C 273.65729,330.20556 216.79943,275.06409 162.71875,234.78125 a 25.003325,25.003325 0 1 0 -29.84375,40.125 c 48.88196,36.41049 107.84759,98.69074 182.96875,117.21875 37.56058,9.26401 79.93727,5.5217 120.84375,-18.875 40.90648,-24.3967 80.53225,-67.70124 121.03125,-136.28125 a 25.0025,25.0025 0 0 0 -20.875,-38.03125 z"
       id="path3284-1-1"
       inkscape:connector-curvature="0" />
    <path
       style="font-size:medium;font-style:normal;font-variant:normal;font-weight:normal;font-stretch:normal;text-indent:0;text-align:start;text-decoration:none;line-height:normal;letter-spacing:normal;word-spacing:normal;text-transform:none;direction:ltr;block-progression:tb;writing-mode:lr-tb;text-anchor:start;baseline-shift:baseline;color:#000000;fill:#ffffff;fill-opacity:1;stroke:none;stroke-width:50;marker:none;visibility:visible;display:inline;overflow:visible;enable-background:accumulate;font-family:Sans;-inkscape-font-specification:Sans"
       d="m 543.46875,235.3125 a 25.0025,25.0025 0 0 0 -22.4375,16.09375 C 491.35139,326.37459 457.26405,375.97464 423.875,405.125 390.48595,434.27536 358.78155,443.65164 328.0625,440.75 266.62441,434.94672 202.05038,372.66849 167.25,276.625 a 25.0025,25.0025 0 1 0 -47,17.03125 c 39.09012,107.88247 113.43178,188.40577 203.09375,196.875 44.83098,4.23461 91.73355,-11.36759 133.40625,-47.75 41.6727,-36.38241 79.08144,-92.89822 110.78125,-172.96875 a 25.0025,25.0025 0 0 0 -24.0625,-34.5 z"
       id="path3284-0-1"
       inkscape:connector-curvature="0" />
    <path
       style="font-size:medium;font-style:normal;font-variant:normal;font-weight:normal;font-stretch:normal;text-indent:0;text-align:start;text-decoration:none;line-height:normal;letter-spacing:normal;word-spacing:normal;text-transform:none;direction:ltr;block-progression:tb;writing-mode:lr-tb;text-anchor:start;baseline-shift:baseline;color:#000000;fill:#ffffff;fill-opacity:1;stroke:none;stroke-width:50;marker:none;visibility:visible;display:inline;overflow:visible;enable-background:accumulate;font-family:Sans;-inkscape-font-specification:Sans"
       d="M 556.53125,287.8125 A 25.0025,25.0025 0 0 0 532.625,305.40625 C 498.06674,411.43937 460.83996,474.93778 426.9375,507.625 393.03504,540.31222 365.31242,544.66908 334.875,536.5625 274.00015,520.34934 204.19283,434.19155 160.75,366.59375 A 25.0025,25.0025 0 1 0 118.6875,393.625 c 45.31467,70.51042 113.32666,167.27521 203.34375,191.25 45.00855,11.98739 96.01226,0.73806 139.59375,-41.28125 43.58149,-42.01931 82.59592,-112.33331 118.5625,-222.6875 A 25.0025,25.0025 0 0 0 556.53125,287.8125 z"
       id="path3284-19-1"
       inkscape:connector-curvature="0" />
    <path
       style="font-size:medium;font-style:normal;font-variant:normal;font-weight:normal;font-stretch:normal;text-indent:0;text-align:start;text-decoration:none;line-height:normal;letter-spacing:normal;word-spacing:normal;text-transform:none;direction:ltr;block-progression:tb;writing-mode:lr-tb;text-anchor:start;baseline-shift:baseline;color:#000000;fill:#ffffff;fill-opacity:1;stroke:none;stroke-width:50;marker:none;visibility:visible;display:inline;overflow:visible;enable-background:accumulate;font-family:Sans;-inkscape-font-specification:Sans"
       d="m 576.15625,311.1875 a 25.0025,25.0025 0 0 0 -24.0625,20.5 c -26.02976,132.16668 -59.69308,215.39728 -93.5625,261 -33.86942,45.60272 -63.21554,54.64434 -95.84375,48.5625 -32.62821,-6.08184 -70.93024,-32.88655 -106.59375,-71.875 -35.66351,-38.98845 -68.72468,-89.10842 -94.3125,-137.21875 a 25.0025,25.0025 0 1 0 -44.125,23.46875 c 27.16994,51.08502 61.89909,104.1729 101.53125,147.5 39.63216,43.3271 84.14949,77.92513 134.34375,87.28125 50.19426,9.35612 103.65622,-12.07154 145.125,-67.90625 C 540.12503,566.66529 574.31193,477.48768 601.125,341.34375 A 25.0025,25.0025 0 0 0 576.15625,311.1875 z"
       id="path3284-19-5-8"
       inkscape:connector-curvature="0" />
    <path
       style="font-size:medium;font-style:normal;font-variant:normal;font-weight:normal;font-stretch:normal;text-indent:0;text-align:start;text-decoration:none;line-height:normal;letter-spacing:normal;word-spacing:normal;text-transform:none;direction:ltr;block-progression:tb;writing-mode:lr-tb;text-anchor:start;baseline-shift:baseline;color:#000000;fill:#ffffff;fill-opacity:1;stroke:none;stroke-width:50;marker:none;visibility:visible;display:inline;overflow:visible;enable-background:accumulate;font-family:Sans;-inkscape-font-specification:Sans"
       d="m 532.59375,134.0625 a 25.0025,25.0025 0 0 0 -1.75,0.0625 C 328.39169,144.70075 249.86192,185.86463 141.21875,215.5 A 25.0025,25.0025 0 1 0 154.375,263.71875 C 268.30827,232.64036 336.99215,194.32611 533.46875,184.0625 a 25.003828,25.003828 0 1 0 -0.875,-50 z"
       id="path3284-8-5"
       inkscape:connector-curvature="0" />
    <path
       style="font-size:medium;font-style:normal;font-variant:normal;font-weight:normal;font-stretch:normal;text-indent:0;text-align:start;text-decoration:none;line-height:normal;letter-spacing:normal;word-spacing:normal;text-transform:none;direction:ltr;block-progression:tb;writing-mode:lr-tb;text-anchor:start;baseline-shift:baseline;color:#000000;fill:#ffffff;fill-opacity:1;stroke:none;stroke-width:50;marker:none;visibility:visible;display:inline;overflow:visible;enable-background:accumulate;font-family:Sans;-inkscape-font-specification:Sans"
       d="m 571.53125,325.78125 a 25.0025,25.0025 0 0 0 -25.9375,24 c -10.37191,191.61876 -37.64255,305.689 -69.28125,362.53125 -15.81935,28.42112 -31.6625,41.86494 -46.03125,47.5 -14.36875,5.63506 -29.37664,4.81771 -48.125,-2.6875 C 344.65952,742.11457 298.19058,697.7014 257.75,646.96875 217.30942,596.2361 181.83862,539.87802 159.125,502.15625 a 25.009359,25.009359 0 1 0 -42.84375,25.8125 c 23.20978,38.54578 59.5868,96.47852 102.375,150.15625 42.7882,53.67773 90.90433,103.78858 144.90625,125.40625 27.00096,10.80883 56.96487,13.82617 84.96875,2.84375 28.00388,-10.98242 51.92159,-34.63147 71.46875,-69.75 39.09433,-70.23707 64.94003,-189.06317 75.5,-384.15625 a 25.0025,25.0025 0 0 0 -23.96875,-26.6875 z"
       id="path3284-19-5-9-0"
       inkscape:connector-curvature="0" />
    <path
       style="font-size:medium;font-style:normal;font-variant:normal;font-weight:normal;font-stretch:normal;text-indent:0;text-align:start;text-decoration:none;line-height:normal;letter-spacing:normal;word-spacing:normal;text-transform:none;direction:ltr;block-progression:tb;writing-mode:lr-tb;text-anchor:start;baseline-shift:baseline;color:#000000;fill:#ffffff;fill-opacity:1;stroke:none;stroke-width:50;marker:none;visibility:visible;display:inline;overflow:visible;enable-background:accumulate;font-family:Sans;-inkscape-font-specification:Sans"
       d="m 575.8125,312.9375 a 25.0025,25.0025 0 0 0 -25.15625,27.25 c 18.5065,245.12167 5.91417,395.973 -21.53125,475.90625 -13.72271,39.96663 -30.53568,61.07612 -45.96875,70.5625 -15.43307,9.48638 -31.37472,10.3377 -53.15625,3.0625 C 386.43695,875.16836 328.19323,822.3634 277.59375,757.8125 226.99427,693.2616 182.46852,617.58244 157.5625,560.875 a 25.0025,25.0025 0 1 0 -45.78125,20.09375 c 27.09166,61.68381 73.00395,139.48124 126.46875,207.6875 53.4648,68.20626 112.92384,127.43214 175.90625,148.46875 31.49121,10.5183 66.02481,10.05068 95.1875,-7.875 29.16269,-17.92568 51.0646,-50.31326 67.0625,-96.90625 31.99581,-93.18598 42.86692,-247.69765 24.125,-495.9375 A 25.0025,25.0025 0 0 0 575.8125,312.9375 z"
       id="path3284-19-5-9-9-9"
       inkscape:connector-curvature="0" />
  </g>
</svg>
